<?xml version="1.0" encoding="utf-8"?>
<!-- Generator: Adobe Illustrator 22.0.1, SVG Export Plug-In . SVG Version: 6.00 Build 0)  -->
<svg version="1.1" id="Layer_1" xmlns="http://www.w3.org/2000/svg" xmlns:xlink="http://www.w3.org/1999/xlink" x="0px" y="0px"
	 width="76px" height="20px" viewBox="0 0 76 20" style="enable-background:new 0 0 76 20;" xml:space="preserve">
<style type="text/css">
	.st0{fill:#FFFFFF;}
</style>
<title>E09311EA-B94F-48AE-8F8A-74A059C507E0</title>
<desc>Created with sketchtool.</desc>
<g id="UI">
	<g id="oander-sitebuild_blogpost-D" transform="translate(-165.000000, -25.000000)">
		<g id="header">
			<path id="Logo" class="st0" d="M213.3,44.6l0-1.8c-0.9,1.4-2.2,2.1-4,2.1c-0.9,0-1.8-0.2-2.5-0.5c-0.8-0.4-1.4-0.9-2-1.5
				c-0.5-0.7-1-1.5-1.3-2.4c-0.3-1-0.5-2-0.5-3.2c0-1.1,0.1-2.1,0.4-3c0.3-0.9,0.6-1.7,1.2-2.4c0.5-0.7,1.1-1.2,1.9-1.5
				c0.7-0.4,1.6-0.5,2.5-0.5c1.8,0,3.2,0.7,4.3,2.2V25h3.8v19.6H213.3z M210.1,41.9c0.9,0,1.7-0.4,2.3-1.1c0.6-0.8,0.9-1.8,0.9-3
				c0-3.1-1.1-4.7-3.2-4.7c-2.2,0-3.3,1.5-3.3,4.4c0,1.3,0.3,2.3,0.9,3.1C208.4,41.5,209.1,41.9,210.1,41.9z M188.9,39.1
				c0,0.4-0.1,0.8-0.3,1.2c-0.2,0.4-0.4,0.7-0.7,1c-0.3,0.3-0.7,0.5-1.1,0.7c-0.4,0.2-0.9,0.2-1.4,0.2c-1.2,0-1.8-0.5-1.8-1.6
				c0-0.6,0.2-1.1,0.6-1.4c0.4-0.3,1.2-0.6,2.3-0.8c0.7-0.1,1.2-0.3,1.6-0.4c0.4-0.1,0.7-0.2,0.8-0.4L188.9,39.1z M201.9,32.5
				c-0.2-0.6-0.6-1.1-1-1.5c-0.4-0.4-0.9-0.7-1.5-0.9c-0.6-0.2-1.2-0.3-1.9-0.3c-0.5,0-1,0-1.4,0.1c-0.7,0.2-3.1,0.8-3.5,3.8
				c0-0.2-0.1-0.4-0.2-0.7c-0.2-0.7-0.6-1.3-1-1.8c-0.5-0.5-1.1-0.8-1.9-1.1c-0.8-0.3-1.8-0.4-2.9-0.4c-1.2,0-2.1,0.1-2.9,0.4
				c-0.8,0.2-1.5,0.6-2,1c-0.5,0.4-0.9,1-1.1,1.6s-0.3,1.3-0.4,2h3.6c0.1-0.6,0.3-1.2,0.7-1.5c0.4-0.4,1-0.6,1.9-0.6
				c0.7,0,1.3,0.1,1.8,0.4c0.4,0.3,0.7,0.6,0.7,1.1c0,0.5-0.2,0.9-0.5,1.1c-0.3,0.2-1,0.4-1.9,0.5c-1,0.1-1.8,0.3-2.7,0.5
				c-0.8,0.2-1.5,0.4-2.1,0.8c-0.6,0.4-1,0.8-1.4,1.4s-0.5,1.4-0.5,2.5c0,1.2,0.4,2.1,1.2,2.9c0.8,0.7,2,1.1,3.7,1.1
				c1,0,1.8-0.1,2.6-0.5c0.7-0.3,1.3-1,1.8-1.5c0,0.5,0.1,1.3,0.2,1.6h3.5v-8.3c0-2.2,1.3-3.3,3.3-3.3c0.9,0,1.5,0.2,1.9,0.6
				c0.4,0.4,0.6,1.1,0.6,2.3v8.7h3.8v-10C202.3,33.8,202.2,33.1,201.9,32.5z M231.9,44.6V30.2h3.5v1.7c0.3-0.5,0.6-0.9,1-1.2
				c0.3-0.3,0.7-0.5,1.1-0.6s0.7-0.2,1.1-0.3c0.4,0,0.8-0.1,1.1-0.1h0.5v3.9c-0.4-0.1-0.7-0.1-1.1-0.1c-2.3,0-3.5,1.2-3.5,3.5v7.5
				L231.9,44.6L231.9,44.6z M221.3,38.4c0.1,1.1,0.4,2,1,2.6c0.6,0.6,1.3,1,2.3,1c0.6,0,1.2-0.1,1.7-0.4c0.5-0.3,0.8-0.7,0.9-1.2
				h3.9c-0.5,1.5-1.2,2.6-2.4,3.4c-1.1,0.8-2.4,1.2-4,1.2c-4.8,0-7.2-2.6-7.2-7.8c0-1.1,0.2-2.1,0.5-3c0.3-0.9,0.8-1.7,1.4-2.3
				c0.6-0.6,1.3-1.1,2.2-1.5c0.9-0.3,1.8-0.5,3-0.5c2.2,0,3.9,0.7,5.1,2.1c1.1,1.4,1.7,3.6,1.7,6.4H221.3z M227.3,36
				c0-0.5-0.1-1-0.3-1.4c-0.2-0.4-0.4-0.7-0.7-1c-0.3-0.3-0.6-0.5-0.9-0.6c-0.4-0.1-0.7-0.2-1.1-0.2c-0.8,0-1.4,0.3-2,0.8
				c-0.6,0.6-0.9,1.3-1,2.3L227.3,36L227.3,36z M172.4,45c-1.2,0-2.2-0.2-3.1-0.6c-0.9-0.4-1.7-0.9-2.3-1.5
				c-0.6-0.7-1.1-1.5-1.5-2.4c-0.3-0.9-0.5-2-0.5-3.1c0-1.1,0.2-2.2,0.5-3.1s0.8-1.7,1.5-2.4c0.6-0.7,1.4-1.2,2.3-1.5
				c0.9-0.4,1.9-0.5,3.1-0.5c1.1,0,2.1,0.2,3,0.5c0.9,0.4,1.7,0.9,2.3,1.5c0.6,0.7,1.1,1.5,1.5,2.4c0.3,0.9,0.5,2,0.5,3.1
				s-0.2,2.2-0.5,3.1s-0.8,1.7-1.5,2.4c-0.6,0.7-1.4,1.2-2.3,1.5C174.5,44.8,173.5,45,172.4,45z M172.4,41.8c2.3,0,3.5-1.5,3.5-4.4
				c0-2.9-1.2-4.4-3.5-4.4s-3.5,1.5-3.5,4.4C168.9,40.3,170.1,41.8,172.4,41.8z"/>
		</g>
	</g>
</g>
</svg>
