<?xml version="1.0" encoding="UTF-8"?>
<svg width="76px" height="20px" viewBox="0 0 76 20" version="1.1" xmlns="http://www.w3.org/2000/svg" xmlns:xlink="http://www.w3.org/1999/xlink">
    <!-- Generator: sketchtool 51.1 (57501) - http://www.bohemiancoding.com/sketch -->
    <title>E09311EA-B94F-48AE-8F8A-74A059C507E0</title>
    <desc>Created with sketchtool.</desc>
    <defs></defs>
    <g id="UI" stroke="none" stroke-width="1" fill="none" fill-rule="evenodd">
        <g id="oander-sitebuild_blogpost-D" transform="translate(-165.000000, -25.000000)" fill="#000000">
            <g id="header">
                <path d="M213.2618,44.6181206 L213.23173,42.8659678 C212.352117,44.2886559 211.014093,45 209.217355,45 C208.300306,45 207.458356,44.8277799 206.699022,44.4758517 C205.939838,44.1239236 205.278306,43.6222389 204.737052,42.9558218 C204.188281,42.2968925 203.759788,41.4882067 203.443981,40.537252 C203.12825,39.5862973 202.977902,38.5005616 202.977902,37.2950206 C202.977902,36.2092849 203.11329,35.2059154 203.3764,34.2998877 C203.639509,33.39386 204.022897,32.6076376 204.534006,31.9487083 C205.045191,31.2897791 205.661619,30.7731187 206.398325,30.4137027 C207.135107,30.0542868 207.96954,29.8745788 208.901699,29.8745788 C210.675809,29.8745788 212.104118,30.623362 213.179033,32.1209285 L213.179033,25 L216.930298,25 L216.930298,44.6181206 L213.2618,44.6181206 Z M210.096893,41.9075253 C211.014093,41.9075253 211.780869,41.5256458 212.397297,40.7693748 C213.01365,40.0131037 213.321939,39.017222 213.321939,37.7892175 C213.321939,34.6742793 212.254466,33.1168102 210.127038,33.1168102 C207.939395,33.1168102 206.841928,34.599401 206.841928,37.5570947 C206.841928,38.8450019 207.142624,39.8858106 207.75146,40.6944964 C208.352853,41.5031823 209.134739,41.9075253 210.096893,41.9075253 Z M188.905377,39.1220517 C188.905377,39.5488581 188.815168,39.953201 188.627233,40.3350805 C188.439298,40.7169599 188.19874,41.0464246 187.890526,41.3309622 C187.582237,41.6154998 187.228994,41.8401348 186.808019,42.0048671 C186.387044,42.1695994 185.928406,42.2519656 185.439774,42.2519656 C184.206993,42.2519656 183.590565,41.7128416 183.590565,40.6420816 C183.590565,40.0205915 183.793536,39.5413703 184.206993,39.2119057 C184.620451,38.882441 185.372193,38.6053912 186.469735,38.3957319 C187.176372,38.260951 187.710108,38.1336578 188.085979,38.0138525 C188.454332,37.8940472 188.739994,37.8491202 188.935372,37.6544365 L188.905377,39.1220517 Z M201.902911,32.5327593 C201.662429,31.9337327 201.324146,31.4320479 200.910688,31.027705 C200.489713,30.6158742 199.985971,30.3088731 199.407205,30.1067016 C198.820772,29.9045301 198.189384,29.7997005 197.505224,29.7997005 C196.986598,29.7997005 196.520518,29.8446275 196.092025,29.9269936 C195.347801,30.1516286 193.02492,30.7731187 192.566358,33.7457881 C192.521254,33.5211531 192.468557,33.2965182 192.408492,33.0868589 C192.190487,32.3755148 191.844686,31.7764882 191.371089,31.3047548 C190.8899,30.8255335 190.258512,30.4586297 189.469183,30.2040434 C188.679855,29.9494571 187.717626,29.822164 186.582496,29.822164 C185.432332,29.822164 184.455068,29.9419693 183.650705,30.1890678 C182.846266,30.4286784 182.199844,30.7806065 181.696177,31.2298765 C181.200028,31.6791464 180.831674,32.2182703 180.606152,32.8397604 C180.38063,33.4612505 180.260351,34.150131 180.237799,34.8839386 L183.793536,34.8839386 C183.891262,34.239985 184.131819,33.7233246 184.515207,33.3339573 C184.898596,32.94459 185.530058,32.7499064 186.409596,32.7499064 C187.15382,32.7499064 187.747696,32.8846874 188.18363,33.1467615 C188.627233,33.4088356 188.845238,33.7757394 188.845238,34.239985 C188.845238,34.7491576 188.679855,35.1160614 188.349089,35.3332085 C188.018322,35.5578435 187.371825,35.7375515 186.409596,35.8723325 C185.447367,36.0071134 184.567829,36.1643579 183.748356,36.3290902 C182.93655,36.4938225 182.237431,36.7558967 181.651073,37.100337 C181.064714,37.4522651 180.606152,37.9314863 180.275386,38.5454886 C179.94462,39.1594908 179.779236,39.9831524 179.779236,41.0164732 C179.779236,42.1845751 180.162625,43.1355298 180.936918,43.8693373 C181.711212,44.6031449 182.929033,44.9625608 184.590382,44.9625608 C185.567645,44.9625608 186.432148,44.8128042 187.176372,44.5058031 C187.920521,44.2062898 188.521914,43.4649944 188.965517,42.9558218 C189.003104,43.4425309 189.08572,44.2062898 189.198481,44.5806814 L192.724224,44.5806814 L192.724224,36.3141146 C192.724224,34.1126919 194.009626,33.034444 195.994299,33.034444 C196.896389,33.034444 197.527851,33.2291277 197.903722,33.6184949 C198.279593,34.0078622 198.460011,34.7566455 198.460011,35.8723325 L198.460011,44.5881692 L202.278782,44.5881692 L202.278782,34.599401 C202.27134,33.8131786 202.151061,33.124298 201.902911,32.5327593 Z M231.8674,44.5881692 L231.8674,30.1965556 L235.377957,30.1965556 L235.377957,31.9112692 C235.686246,31.4170723 236.016937,31.0351928 236.362814,30.758143 C236.708539,30.4810932 237.054416,30.2714339 237.415252,30.1216773 C237.776087,29.9719206 238.144441,29.8820666 238.512719,29.8446275 C238.88859,29.8071883 239.26446,29.7847248 239.655441,29.7847248 L240.151515,29.7847248 L240.151515,33.7008611 C239.798272,33.6409584 239.444953,33.6110071 239.091635,33.6110071 C236.761236,33.6110071 235.596037,34.7716211 235.596037,37.0928491 L235.596037,44.5806814 L231.8674,44.5806814 L231.8674,44.5881692 Z M221.305433,38.3882441 C221.365572,39.4814676 221.681303,40.3425683 222.260069,40.9940097 C222.83891,41.6379633 223.598244,41.9599401 224.537921,41.9599401 C225.161866,41.9599401 225.71808,41.8176713 226.199269,41.5331337 C226.680384,41.248596 226.988598,40.8592288 227.123836,40.3500562 L231.055444,40.3500562 C230.604399,41.8326469 229.822663,42.9707975 228.702493,43.7719955 C227.589991,44.5731936 226.259334,44.9700487 224.710821,44.9700487 C219.892084,44.9700487 217.486511,42.3567952 217.486511,37.1302883 C217.486511,36.0220891 217.644452,35.0187196 217.952591,34.1201797 C218.268397,33.2216398 218.719442,32.4503931 219.320835,31.8064395 C219.914711,31.162486 220.643825,30.668289 221.508328,30.3313366 C222.37283,29.9868963 223.357687,29.8146762 224.470264,29.8146762 C226.702936,29.8146762 228.394354,30.5260202 229.537001,31.9487083 C230.679573,33.3713965 231.258414,35.5204043 231.258414,38.3882441 L221.305433,38.3882441 Z M227.326882,35.9921378 C227.304329,35.4679895 227.21412,35.0037439 227.048662,34.6068888 C226.883279,34.2100337 226.657757,33.8730812 226.387205,33.6110071 C226.108985,33.348933 225.800847,33.1542493 225.447528,33.0269562 C225.094134,32.899663 224.733374,32.8397604 224.364945,32.8397604 C223.598244,32.8397604 222.936637,33.1168102 222.380423,33.6709098 C221.824059,34.2250094 221.500886,35.0037439 221.425711,35.9996256 L227.326882,35.9996256 L227.326882,35.9921378 Z M172.41217,44.9700487 C171.239454,44.9700487 170.194533,44.7828529 169.277334,44.4159491 C168.360284,44.0415575 167.585915,43.524897 166.946935,42.8659678 C166.315547,42.1995507 165.826916,41.3983527 165.496149,40.4623736 C165.165383,39.5263946 165,38.5005616 165,37.3848746 C165,36.2542119 165.172901,35.2134032 165.511184,34.2774242 C165.849468,33.3414452 166.345542,32.5402471 166.992115,31.87383 C167.638612,31.207413 168.412831,30.6982404 169.322513,30.3313366 C170.23212,29.9719206 171.262006,29.7922127 172.41217,29.7922127 C173.5473,29.7922127 174.562151,29.9719206 175.456723,30.3313366 C176.358813,30.6907525 177.125589,31.1999251 177.757052,31.8513665 C178.388515,32.5028079 178.877147,33.304006 179.222948,34.239985 C179.568749,35.1759641 179.734132,36.2242606 179.734132,37.3773867 C179.734132,38.5305129 179.561231,39.5713216 179.222948,40.4998128 C178.884664,41.428304 178.388515,42.2220142 177.757052,42.8884313 C177.125589,43.5548484 176.351296,44.064021 175.441613,44.4234369 C174.532081,44.7903407 173.524673,44.9700487 172.41217,44.9700487 Z M172.427205,41.78772 C174.757604,41.78772 175.922803,40.3275927 175.922803,37.3998502 C175.922803,34.4945713 174.757604,33.0419319 172.427205,33.0419319 C170.096807,33.0419319 168.931608,34.4945713 168.931608,37.3998502 C168.931608,40.3201048 170.096807,41.78772 172.427205,41.78772 Z" id="Logo"></path>
            </g>
        </g>
    </g>
</svg>