<?xml version="1.0" encoding="UTF-8"?>
<svg width="16px" height="16px" viewBox="0 0 16 16" version="1.1" xmlns="http://www.w3.org/2000/svg" xmlns:xlink="http://www.w3.org/1999/xlink">
    <!-- Generator: sketchtool 51.1 (57501) - http://www.bohemiancoding.com/sketch -->
    <title>E8403E77-5C8D-492F-A075-B170390E8172</title>
    <desc>Created with sketchtool.</desc>
    <defs></defs>
    <g id="UI" stroke="none" stroke-width="1" fill="none" fill-rule="evenodd">
        <g id="oander-sitebuild_blogpost-D" transform="translate(-1259.000000, -144.000000)" fill="#042839" fill-rule="nonzero">
            <g id="right-side" transform="translate(925.000000, 130.000000)">
                <g id="search" transform="translate(21.000000, 10.000000)">
                    <path d="M328.829871,19.0848811 L324.05741,14.2974201 C325.000875,13.1774817 325.521133,11.7618157 325.527398,10.2974526 L325.527398,10.2974987 C325.509851,6.83945187 322.720396,4.03549971 319.262499,4 L319.262499,4 C315.810402,4.0367027 313.02435,6.83272693 313,10.2849488 L313,10.2849592 C313.022996,13.7381311 315.809402,16.5356583 319.262449,16.572408 C320.699312,16.5685443 322.090226,16.0657296 323.197417,15.1499196 L327.917379,19.884881 C328.201669,20.0368805 328.543081,20.0368805 328.827371,19.884881 C329.048941,19.6750858 329.058486,19.3253956 328.848691,19.1038249 C328.842571,19.0973616 328.836296,19.0910472 328.829871,19.0848871 L328.829871,19.0848811 Z M319.262449,15.4274109 C316.422372,15.4370758 314.112191,13.142567 314.102516,10.3024776 C314.092851,7.46240077 316.38736,5.15221959 319.227449,5.14254466 C322.067526,5.13287974 324.377707,7.42738855 324.387382,10.2674779 C324.387402,10.2733012 324.387412,10.2791246 324.387412,10.284948 L324.387412,10.2849556 C324.403985,13.1084326 322.128533,15.4107639 319.305054,15.4273387 C319.290853,15.4274221 319.276651,15.4274463 319.26245,15.4274113 L319.262449,15.4274109 Z" id="search-icon"></path>
                </g>
            </g>
        </g>
    </g>
</svg>